<?xml version="1.0" encoding="UTF-8" standalone="no"?>
<svg
   xmlns:dc="http://purl.org/dc/elements/1.1/"
   xmlns:cc="http://creativecommons.org/ns#"
   xmlns:rdf="http://www.w3.org/1999/02/22-rdf-syntax-ns#"
   xmlns:svg="http://www.w3.org/2000/svg"
   xmlns="http://www.w3.org/2000/svg"
   xmlns:xlink="http://www.w3.org/1999/xlink"
   xmlns:sodipodi="http://sodipodi.sourceforge.net/DTD/sodipodi-0.dtd"
   xmlns:inkscape="http://www.inkscape.org/namespaces/inkscape"
   width="24.13665mm"
   height="14.95245mm"
   viewBox="0 0 24.13665 14.95245"
   version="1.1"
   id="svg8"
   inkscape:version="1.0.2-2 (e86c870879, 2021-01-15)"
   sodipodi:docname="icon-off.svg">
  <defs
     id="defs2">
    <radialGradient
       inkscape:collect="always"
       xlink:href="#linearGradient1141"
       id="radialGradient1171"
       gradientUnits="userSpaceOnUse"
       gradientTransform="matrix(2.0635577,-0.15503329,0.07116953,0.94729625,-143.27691,23.33099)"
       cx="129.8306"
       cy="76.014763"
       fx="129.8306"
       fy="76.014763"
       r="9.2878151" />
    <linearGradient
       inkscape:collect="always"
       id="linearGradient1141">
      <stop
         style="stop-color:#44f300;stop-opacity:1"
         offset="0"
         id="stop1137" />
      <stop
         style="stop-color:#44b900;stop-opacity:1"
         offset="1"
         id="stop1139" />
    </linearGradient>
  </defs>
  <sodipodi:namedview
     id="base"
     pagecolor="#ffffff"
     bordercolor="#666666"
     borderopacity="1.0"
     inkscape:pageopacity="0.0"
     inkscape:pageshadow="2"
     inkscape:zoom="2.8"
     inkscape:cx="80.111187"
     inkscape:cy="51.083725"
     inkscape:document-units="mm"
     inkscape:current-layer="layer1"
     inkscape:document-rotation="0"
     showgrid="false"
     inkscape:snap-smooth-nodes="false"
     showguides="true"
     inkscape:guide-bbox="true"
     inkscape:object-paths="true"
     inkscape:window-width="1920"
     inkscape:window-height="1027"
     inkscape:window-x="-8"
     inkscape:window-y="-8"
     inkscape:window-maximized="1"
     inkscape:snap-midpoints="false"
     inkscape:object-nodes="false" />
  <metadata
     id="metadata5">
    <rdf:RDF>
      <cc:Work
         rdf:about="">
        <dc:format>image/svg+xml</dc:format>
        <dc:type
           rdf:resource="http://purl.org/dc/dcmitype/StillImage" />
        <dc:title></dc:title>
      </cc:Work>
    </rdf:RDF>
  </metadata>
  <g
     inkscape:label="Layer 1"
     inkscape:groupmode="layer"
     id="layer1"
     transform="translate(-134.80162,-143.89821)">
    <path
       id="path2201"
       style="fill:#0f0202;fill-opacity:1;stroke:none;stroke-width:0.434203;stroke-linecap:square;stroke-linejoin:miter;stroke-miterlimit:4;stroke-dasharray:none;stroke-opacity:1"
       d="m 145.68295,144.98393 c -5.42989,0 -9.92971,2.53428 -10.74755,5.84765 h -0.13378 v 1.08572 c -1.1e-4,3.82917 4.87167,6.93337 10.88133,6.93336 2.88597,-5e-5 5.6537,-0.73061 7.69429,-2.03092 v -1.08573 h -1.70389 l -3.5856,-2.28447 c -0.63778,0.40641 -1.5028,0.6347 -2.4048,0.63472 -1.8783,0 -3.40108,-0.97017 -3.40104,-2.16696 -4e-5,-1.1968 1.52274,-2.16696 3.40104,-2.16696 0.902,2e-5 1.76702,0.2283 2.4048,0.63472 l 5.28949,-3.3702 v -1.08572 z" />
    <path
       id="path2203"
       style="fill:#691009;fill-opacity:1;stroke:none;stroke-width:0.434203;stroke-linecap:square;stroke-linejoin:miter;stroke-miterlimit:4;stroke-dasharray:none;stroke-opacity:1"
       d="m 145.68295,143.89821 c -6.00967,0 -10.88144,3.10419 -10.88133,6.93337 -1.1e-4,3.82917 4.87167,6.93336 10.88133,6.93336 2.88597,-6e-5 5.6537,-0.7306 7.69429,-2.03093 l -5.28949,-3.3702 c -0.63778,0.40642 -1.5028,0.6347 -2.4048,0.63472 -1.8783,0 -3.40108,-0.97016 -3.40104,-2.16695 -4e-5,-1.1968 1.52274,-2.16696 3.40104,-2.16696 0.902,2e-5 1.76702,0.2283 2.4048,0.63472 l 5.28949,-3.3702 c -2.04059,-1.30032 -4.80832,-2.03087 -7.69429,-2.03093 z" />
    <path
       id="path2205"
       style="fill:#575757;fill-opacity:1;stroke:none;stroke-width:0.434203;stroke-linecap:square;stroke-linejoin:miter;stroke-miterlimit:4;stroke-dasharray:none;stroke-opacity:1"
       d="m 155.75119,147.01486 -4.05147,2.5815 v -0.29702 h -1.23803 v 1.08572 c 0.61545,0.39215 0.99599,0.93384 0.99597,1.53224 1e-5,0.15319 -0.0252,0.30259 -0.0726,0.4468 h -0.92333 v 1.08544 l 5.2895,3.37048 c 2.0407,-1.30028 3.18712,-3.06385 3.18704,-4.90272 v -1.08544 z" />
    <path
       id="path2207"
       style="fill:#cccccc;fill-opacity:1;stroke:none;stroke-width:0.434203;stroke-linecap:square;stroke-linejoin:miter;stroke-miterlimit:4;stroke-dasharray:none;stroke-opacity:1"
       d="m 155.75119,145.92942 -5.28893,3.36992 c 0.61544,0.39215 0.99598,0.93384 0.99597,1.53224 1e-5,0.59856 -0.38078,1.14034 -0.99654,1.53252 l 5.2895,3.37047 a 10.881339,6.9332432 0 0 0 3.18704,-4.90271 10.881339,6.9332432 0 0 0 -3.18704,-4.90244 z" />
    <text
       xml:space="preserve"
       style="font-style:normal;font-weight:normal;font-size:10.5833px;line-height:1.25;font-family:sans-serif;fill:#000000;fill-opacity:1;stroke:none;stroke-width:0.264583"
       x="93.07663"
       y="109.32961"
       id="text2254"><tspan
         sodipodi:role="line"
         id="tspan2252"
         x="93.07663"
         y="109.32961"
         style="stroke-width:0.264583" /></text>
  </g>
  <g
     inkscape:groupmode="layer"
     id="layer2"
     inkscape:label="Layer 2"
     transform="translate(-134.80162,-143.89821)" />
</svg>
