<?xml version="1.0" encoding="UTF-8" standalone="no"?>
<svg
   xmlns:dc="http://purl.org/dc/elements/1.1/"
   xmlns:cc="http://creativecommons.org/ns#"
   xmlns:rdf="http://www.w3.org/1999/02/22-rdf-syntax-ns#"
   xmlns:svg="http://www.w3.org/2000/svg"
   xmlns="http://www.w3.org/2000/svg"
   xmlns:xlink="http://www.w3.org/1999/xlink"
   xmlns:sodipodi="http://sodipodi.sourceforge.net/DTD/sodipodi-0.dtd"
   xmlns:inkscape="http://www.inkscape.org/namespaces/inkscape"
   width="95.911461mm"
   height="28.159225mm"
   viewBox="0 0 95.911461 28.159225"
   version="1.1"
   id="svg8"
   inkscape:version="1.0.2-2 (e86c870879, 2021-01-15)"
   sodipodi:docname="logo-smort-new.svg">
  <defs
     id="defs2">
    <radialGradient
       inkscape:collect="always"
       xlink:href="#linearGradient1141"
       id="radialGradient1171"
       gradientUnits="userSpaceOnUse"
       gradientTransform="matrix(2.0635577,-0.15503329,0.07116953,0.94729625,-143.27691,23.33099)"
       cx="129.8306"
       cy="76.014763"
       fx="129.8306"
       fy="76.014763"
       r="9.2878151" />
    <linearGradient
       inkscape:collect="always"
       id="linearGradient1141">
      <stop
         style="stop-color:#44f300;stop-opacity:1"
         offset="0"
         id="stop1137" />
      <stop
         style="stop-color:#44b900;stop-opacity:1"
         offset="1"
         id="stop1139" />
    </linearGradient>
  </defs>
  <sodipodi:namedview
     id="base"
     pagecolor="#ffffff"
     bordercolor="#666666"
     borderopacity="1.0"
     inkscape:pageopacity="0.0"
     inkscape:pageshadow="2"
     inkscape:zoom="1.979899"
     inkscape:cx="177.6138"
     inkscape:cy="82.185526"
     inkscape:document-units="mm"
     inkscape:current-layer="layer1"
     inkscape:document-rotation="0"
     showgrid="false"
     inkscape:snap-smooth-nodes="false"
     showguides="true"
     inkscape:guide-bbox="true"
     inkscape:object-paths="true"
     inkscape:window-width="1920"
     inkscape:window-height="1027"
     inkscape:window-x="-8"
     inkscape:window-y="-8"
     inkscape:window-maximized="1"
     inkscape:snap-midpoints="false"
     inkscape:object-nodes="false" />
  <metadata
     id="metadata5">
    <rdf:RDF>
      <cc:Work
         rdf:about="">
        <dc:format>image/svg+xml</dc:format>
        <dc:type
           rdf:resource="http://purl.org/dc/dcmitype/StillImage" />
        <dc:title></dc:title>
      </cc:Work>
    </rdf:RDF>
  </metadata>
  <g
     inkscape:label="Layer 1"
     inkscape:groupmode="layer"
     id="layer1"
     transform="translate(-114.72672,-137.14798)">
    <path
       d="m 123.07856,147.21784 v 7.22745 h 0.56896 q 2.11963,0 2.75552,-1.00686 0.62473,-1.00686 0.62473,-2.5321 0,-0.91714 -0.26774,-1.81433 -0.2789,-0.8972 -0.98173,-1.38568 -0.69167,-0.48848 -2.47662,-0.48848 z m 0,10.54709 h -7.21791 v -3.31964 h 1.21601 v -7.22745 h -1.21601 v -3.31964 h 7.42987 q 2.54356,0 4.15002,0.27913 1.61761,0.27913 3.04558,1.14642 1.4168,0.87727 2.23119,2.3726 0.40161,0.71776 0.61358,1.53521 0.21196,0.81745 0.21196,1.71465 0,1.80437 -0.85901,3.28973 -0.84785,1.4754 -2.1531,2.26294 -1.27178,0.78754 -2.78899,1.0268 -1.50605,0.23925 -4.66319,0.23925 z"
       style="font-style:normal;font-variant:normal;font-weight:normal;font-stretch:normal;font-size:22.8474px;line-height:1.25;font-family:'Rockwell Extra Bold';-inkscape-font-specification:'Rockwell Extra Bold, Normal';font-variant-ligatures:normal;font-variant-caps:normal;font-variant-numeric:normal;font-variant-east-asian:normal;fill:#225500;fill-opacity:1;stroke:none;stroke-width:0.539945"
       id="path2199" />
    <path
       id="path2201"
       style="fill:#0e4e50;fill-opacity:1;stroke:none;stroke-width:0.434203;stroke-linecap:square;stroke-linejoin:miter;stroke-miterlimit:4;stroke-dasharray:none;stroke-opacity:1"
       d="m 145.68295,144.98393 c -5.42989,0 -9.92971,2.53428 -10.74755,5.84765 h -0.13378 v 1.08572 c -1.1e-4,3.82917 4.87167,6.93337 10.88133,6.93336 2.88597,-5e-5 5.6537,-0.73061 7.69429,-2.03092 v -1.08573 h -1.70389 l -3.5856,-2.28447 c -0.63778,0.40641 -1.5028,0.6347 -2.4048,0.63472 -1.8783,0 -3.40108,-0.97017 -3.40104,-2.16696 -4e-5,-1.1968 1.52274,-2.16696 3.40104,-2.16696 0.902,2e-5 1.76702,0.2283 2.4048,0.63472 l 5.28949,-3.3702 v -1.08572 z" />
    <path
       id="path2203"
       style="fill:#16cac8;fill-opacity:1;stroke:none;stroke-width:0.434203;stroke-linecap:square;stroke-linejoin:miter;stroke-miterlimit:4;stroke-dasharray:none;stroke-opacity:1"
       d="m 145.68295,143.89821 c -6.00967,0 -10.88144,3.10419 -10.88133,6.93337 -1.1e-4,3.82917 4.87167,6.93336 10.88133,6.93336 2.88597,-6e-5 5.6537,-0.7306 7.69429,-2.03093 l -5.28949,-3.3702 c -0.63778,0.40642 -1.5028,0.6347 -2.4048,0.63472 -1.8783,0 -3.40108,-0.97016 -3.40104,-2.16695 -4e-5,-1.1968 1.52274,-2.16696 3.40104,-2.16696 0.902,2e-5 1.76702,0.2283 2.4048,0.63472 l 5.28949,-3.3702 c -2.04059,-1.30032 -4.80832,-2.03087 -7.69429,-2.03093 z" />
    <path
       id="path2205"
       style="fill:#575757;fill-opacity:1;stroke:none;stroke-width:0.434203;stroke-linecap:square;stroke-linejoin:miter;stroke-miterlimit:4;stroke-dasharray:none;stroke-opacity:1"
       d="m 155.75119,147.01486 -4.05147,2.5815 v -0.29702 h -1.23803 v 1.08572 c 0.61545,0.39215 0.99599,0.93384 0.99597,1.53224 1e-5,0.15319 -0.0252,0.30259 -0.0726,0.4468 h -0.92333 v 1.08544 l 5.2895,3.37048 c 2.0407,-1.30028 3.18712,-3.06385 3.18704,-4.90272 v -1.08544 z" />
    <path
       id="path2207"
       style="fill:#cccccc;fill-opacity:1;stroke:none;stroke-width:0.434203;stroke-linecap:square;stroke-linejoin:miter;stroke-miterlimit:4;stroke-dasharray:none;stroke-opacity:1"
       d="m 155.75119,145.92942 -5.28893,3.36992 c 0.61544,0.39215 0.99598,0.93384 0.99597,1.53224 1e-5,0.59856 -0.38078,1.14034 -0.99654,1.53252 l 5.2895,3.37047 a 10.881339,6.9332432 0 0 0 3.18704,-4.90271 10.881339,6.9332432 0 0 0 -3.18704,-4.90244 z" />
    <path
       id="path2209"
       style="fill:#0e4e50;fill-opacity:1;stroke:none;stroke-width:0.264583px;stroke-linecap:butt;stroke-linejoin:miter;stroke-opacity:1"
       d="m 160.19706,144.98402 v 3.31969 h 1.26039 v 7.22747 h -1.26039 v 3.31969 h 8.43411 v -3.31969 h -1.17151 v -2.34301 h 1.90738 l 3.38067,5.6627 h 5.58881 v -3.31969 h -1.1157 l -2.14198,-3.17035 c 0.67679,-0.27249 1.22371,-0.6977 1.64021,-1.27589 0.41648,-0.58484 0.62476,-1.23613 0.62476,-1.95389 v -1.08572 l -0.14314,0.0667 c -0.1601,-0.54055 -0.45443,-1.03189 -0.88315,-1.47329 -0.67679,-0.69118 -1.55844,-1.13963 -2.64428,-1.34566 -0.38674,-0.0731 -0.81065,-0.12962 -1.27176,-0.1695 -0.46111,-0.0465 -1.01487,-0.0798 -1.66191,-0.0997 -0.64705,-0.0266 -1.3498,-0.0398 -2.1084,-0.0398 z m 7.2626,3.04064 h 0.54674 c 0.90735,0 1.53167,0.0232 1.87379,0.0698 0.35699,0.0465 0.65104,0.17911 0.8816,0.39843 0.23056,0.21267 0.34571,0.49843 0.34571,0.85731 0,0.35888 -0.11515,0.64147 -0.34571,0.84749 -0.23056,0.21931 -0.51333,0.35242 -0.84801,0.39894 -0.31237,0.0465 -0.90731,0.0698 -1.78491,0.0698 h -0.66921 z" />
    <path
       id="path2211"
       style="font-style:normal;font-variant:normal;font-weight:normal;font-stretch:normal;font-size:22.8474px;line-height:1.25;font-family:'Rockwell Extra Bold';-inkscape-font-specification:'Rockwell Extra Bold, Normal';font-variant-ligatures:normal;font-variant-caps:normal;font-variant-numeric:normal;font-variant-east-asian:normal;fill:#0e4e50;fill-opacity:1;stroke:none;stroke-width:0.539946"
       d="m 115.86076,144.98402 v 3.31969 h 1.21594 v 7.22747 h -1.21594 v 3.31969 h 7.21764 c 2.10476,0 3.65925,-0.0798 4.66328,-0.23926 1.01148,-0.15951 1.94113,-0.50178 2.78898,-1.02681 0.87017,-0.52503 1.58812,-1.27932 2.15336,-2.26291 0.57267,-0.99025 0.85886,-2.08681 0.85886,-3.28972 v -1.08573 h -0.0858 c -0.0332,-0.21308 -0.0728,-0.42389 -0.12609,-0.62941 -0.14132,-0.54497 -0.34618,-1.05629 -0.61392,-1.53479 -0.54293,-0.99689 -1.28634,-1.78814 -2.23087,-2.37298 -0.95198,-0.5782 -1.9674,-0.9601 -3.04581,-1.14619 -1.07097,-0.18608 -2.45443,-0.27905 -4.15014,-0.27905 z m 7.21764,3.31969 h 0.22324 c 1.18997,0 2.01574,0.16269 2.47686,0.48835 0.46855,0.32564 0.7954,0.7873 0.98133,1.38544 0.1785,0.59813 0.2682,1.20293 0.2682,1.81436 0,1.01683 -0.20828,1.86091 -0.62477,2.53214 -0.42392,0.67124 -1.34281,1.00718 -2.7559,1.00718 h -0.56896 z" />
    <path
       d="m 123.07856,147.21784 v 7.22745 h 0.56896 q 2.11963,0 2.75552,-1.00686 0.62473,-1.00686 0.62473,-2.5321 0,-0.91714 -0.26774,-1.81433 -0.2789,-0.8972 -0.98173,-1.38568 -0.69167,-0.48848 -2.47662,-0.48848 z m 0,10.54709 h -7.21791 v -3.31964 h 1.21601 v -7.22745 h -1.21601 v -3.31964 h 7.42987 q 2.54356,0 4.15002,0.27913 1.61761,0.27913 3.04558,1.14642 1.4168,0.87727 2.23119,2.3726 0.40161,0.71776 0.61358,1.53521 0.21196,0.81745 0.21196,1.71465 0,1.80437 -0.85901,3.28973 -0.84785,1.4754 -2.1531,2.26294 -1.27178,0.78754 -2.78899,1.0268 -1.50605,0.23925 -4.66319,0.23925 z"
       style="font-style:normal;font-variant:normal;font-weight:normal;font-stretch:normal;font-size:22.8474px;line-height:1.25;font-family:'Rockwell Extra Bold';-inkscape-font-specification:'Rockwell Extra Bold, Normal';font-variant-ligatures:normal;font-variant-caps:normal;font-variant-numeric:normal;font-variant-east-asian:normal;fill:#16cac8;fill-opacity:1;stroke:none;stroke-width:0.539945"
       id="path2213" />
    <path
       d="m 167.45956,146.93871 v 2.64176 h 0.66936 q 1.3164,0 1.78495,-0.0698 0.50202,-0.0698 0.84785,-0.39875 0.34584,-0.30904 0.34584,-0.84736 0,-0.53832 -0.34584,-0.85732 -0.34583,-0.32898 -0.88132,-0.39876 -0.51317,-0.0698 -1.8742,-0.0698 z m 1.17138,10.82622 h -8.43391 v -3.31964 h 1.26063 v -7.22745 h -1.26063 v -3.31964 h 8.43391 q 1.1379,0 2.10847,0.0399 0.97057,0.0299 1.66224,0.0997 0.69167,0.0598 1.27178,0.16947 1.62877,0.30904 2.64396,1.34581 1.02635,1.0567 1.02635,2.49222 0,1.07664 -0.62473,1.9539 -0.62474,0.86729 -1.63993,1.27602 l 2.14194,3.17011 h 1.1156 v 3.31963 h -5.58914 l -3.38025,-5.66232 h -1.90767 v 2.34269 h 1.17138 z"
       style="font-style:normal;font-variant:normal;font-weight:normal;font-stretch:normal;font-size:22.8474px;line-height:1.25;font-family:'Rockwell Extra Bold';-inkscape-font-specification:'Rockwell Extra Bold, Normal';font-variant-ligatures:normal;font-variant-caps:normal;font-variant-numeric:normal;font-variant-east-asian:normal;fill:#16cac8;fill-opacity:1;stroke:none;stroke-width:0.539945"
       id="path2215" />
    <text
       xml:space="preserve"
       style="font-style:normal;font-weight:normal;font-size:10.5833px;line-height:1.25;font-family:sans-serif;fill:#000000;fill-opacity:1;stroke:none;stroke-width:0.264583"
       x="93.07663"
       y="109.32961"
       id="text2254"><tspan
         sodipodi:role="line"
         id="tspan2252"
         x="93.07663"
         y="109.32961"
         style="stroke-width:0.264583" /></text>
    <circle
       id="path961"
       style="fill:#ffd567;fill-rule:nonzero;stroke:#68e8fb;stroke-width:0.158804;stroke-opacity:0.324484"
       cx="-128.84602"
       cy="211.91368"
       transform="rotate(-77.759407)"
       r="0.0080128154" />
    <g
       id="g1205">
      <path
         style="fill:#9bfaff;fill-opacity:1;fill-rule:nonzero;stroke:#68e8fb;stroke-width:0.120568px;stroke-linecap:butt;stroke-linejoin:miter;stroke-opacity:0.324484"
         d="m 184.96252,144.30456 1.84109,3.27464 3.04163,-5.12036 z"
         id="path1063" />
      <ellipse
         id="path957"
         style="fill:#ffd567;fill-rule:nonzero;stroke:#68e8fb;stroke-width:0.120568;stroke-opacity:0.324484"
         cx="-32.932121"
         cy="231.86314"
         rx="0.0068878066"
         ry="0.005373178"
         transform="rotate(-56.360217)" />
      <ellipse
         id="path959"
         style="fill:#67f8ff;fill-opacity:1;fill-rule:nonzero;stroke:#68e8fb;stroke-width:0.120568;stroke-opacity:0.324484"
         cx="1.4724314"
         cy="251.4411"
         rx="0.0068878066"
         ry="0.005373178"
         transform="rotate(-56.360217)" />
      <path
         style="fill:#b2fcff;fill-opacity:1;fill-rule:nonzero;stroke:#68e8fb;stroke-width:0.120568px;stroke-linecap:butt;stroke-linejoin:miter;stroke-opacity:0.324484"
         d="m 181.80925,141.97213 3.15327,2.33243 4.88272,-1.84572 -0.23466,-1.91292 z"
         id="path1007" />
      <path
         style="fill:#44d1d6;fill-opacity:1;fill-rule:nonzero;stroke:#68e8fb;stroke-width:0.120568px;stroke-linecap:butt;stroke-linejoin:miter;stroke-opacity:0.324484"
         d="m 181.45717,146.07125 0.35208,-4.09912 3.15327,2.33243 1.84109,3.27464 z"
         id="path1009" />
      <path
         style="fill:#67f8ff;fill-opacity:1;fill-rule:nonzero;stroke:#68e8fb;stroke-width:0.120568px;stroke-linecap:butt;stroke-linejoin:miter;stroke-opacity:0.324484"
         d="m 189.84524,142.45884 6.12964,2.32188 -6.3643,-4.2348 z"
         id="path1011" />
      <path
         style="fill:#9ffaff;fill-opacity:1;fill-rule:nonzero;stroke:#68e8fb;stroke-width:0.120568px;stroke-linecap:butt;stroke-linejoin:miter;stroke-opacity:0.324484"
         d="m 186.80361,147.5792 3.04163,-5.12036 8.64118,10.49315 z"
         id="path1013" />
      <path
         style="fill:#49b0b5;fill-opacity:1;fill-rule:nonzero;stroke:#68e8fb;stroke-width:0.120568px;stroke-linecap:butt;stroke-linejoin:miter;stroke-opacity:0.324484"
         d="m 181.45717,146.07125 1.9174,7.07323 4.40121,0.93752 -0.97217,-6.50282 z"
         id="path1015" />
      <path
         style="fill:#3e9599;fill-opacity:1;fill-rule:nonzero;stroke:#68e8fb;stroke-width:0.120568px;stroke-linecap:butt;stroke-linejoin:miter;stroke-opacity:0.324484"
         d="m 187.77578,154.08202 10.63697,6.258 -11.60914,-12.76082 z"
         id="path1017" />
      <path
         style="fill:#50c0c5;fill-opacity:1;fill-rule:nonzero;stroke:#68e8fb;stroke-width:0.120568px;stroke-linecap:butt;stroke-linejoin:miter;stroke-opacity:0.324484"
         d="m 198.41275,160.34002 3.39645,-5.99688 -3.32278,-1.39115 -11.68281,-5.37279 z"
         id="path1019" />
      <path
         style="fill:#8cf9ff;fill-opacity:1;fill-rule:nonzero;stroke:#68e8fb;stroke-width:0.120568px;stroke-linecap:butt;stroke-linejoin:miter;stroke-opacity:0.324484"
         d="m 201.8092,154.34314 -5.83432,-9.56242 -6.12964,-2.32188 8.64118,10.49315 z"
         id="path1021" />
      <path
         style="fill:#67f8ff;fill-opacity:1;fill-rule:nonzero;stroke:#68e8fb;stroke-width:0.120568px;stroke-linecap:butt;stroke-linejoin:miter;stroke-opacity:0.324484"
         d="m 201.8092,154.34314 -0.19547,-6.57161 -5.63885,-2.99081 z"
         id="path1023" />
      <path
         style="fill:#9cfaff;fill-opacity:1;fill-rule:nonzero;stroke:#68e8fb;stroke-width:0.120568px;stroke-linecap:butt;stroke-linejoin:miter;stroke-opacity:0.324484"
         d="m 201.61373,147.77153 1.69777,-4.19921 -13.70092,-3.02639 6.3643,4.2348 z"
         id="path1025" />
      <path
         style="fill:#d6fdff;fill-opacity:1;fill-rule:nonzero;stroke:#68e8fb;stroke-width:0.120568px;stroke-linecap:butt;stroke-linejoin:miter;stroke-opacity:0.324484"
         d="m 201.61373,147.77153 4.42352,2.8263 -2.72575,-7.02551 z"
         id="path1027" />
      <path
         style="fill:#7ff9ff;fill-opacity:1;fill-rule:nonzero;stroke:#68e8fb;stroke-width:0.120568px;stroke-linecap:butt;stroke-linejoin:miter;stroke-opacity:0.324484"
         d="m 201.61373,147.77153 1.88206,3.41903 -1.68659,3.15258 z"
         id="path1029" />
      <path
         style="fill:#8ffaff;fill-opacity:1;fill-rule:nonzero;stroke:#68e8fb;stroke-width:0.120568px;stroke-linecap:butt;stroke-linejoin:miter;stroke-opacity:0.324484"
         d="m 203.49579,151.19056 2.54146,-0.59273 -4.42352,-2.8263 z"
         id="path1031" />
      <path
         style="fill:#b5fcff;fill-opacity:1;fill-rule:nonzero;stroke:#68e8fb;stroke-width:0.120568px;stroke-linecap:butt;stroke-linejoin:miter;stroke-opacity:0.324484"
         d="m 203.49579,151.19056 2.47803,7.32914 0.0634,-7.92187 z"
         id="path1033" />
      <path
         style="fill:#56ced4;fill-opacity:1;fill-rule:nonzero;stroke:#68e8fb;stroke-width:0.120568px;stroke-linecap:butt;stroke-linejoin:miter;stroke-opacity:0.324484"
         d="m 203.49579,151.19056 -1.68659,3.15258 1.33452,0.94653 z"
         id="path1035" />
      <path
         style="fill:#96faff;fill-opacity:1;fill-rule:nonzero;stroke:#68e8fb;stroke-width:0.120568px;stroke-linecap:butt;stroke-linejoin:miter;stroke-opacity:0.324484"
         d="m 203.14371,155.28968 2.83011,3.23002 -2.47803,-7.32914 z"
         id="path1037" />
      <path
         style="fill:#c1fcff;fill-opacity:1;fill-rule:nonzero;stroke:#68e8fb;stroke-width:0.120568px;stroke-linecap:butt;stroke-linejoin:miter;stroke-opacity:0.324484"
         d="m 203.14371,155.28968 -0.43122,3.05095 3.26133,0.17907 z"
         id="path1039" />
      <path
         style="fill:#4dbabf;fill-opacity:1;fill-rule:nonzero;stroke:#68e8fb;stroke-width:0.120568px;stroke-linecap:butt;stroke-linejoin:miter;stroke-opacity:0.324484"
         d="m 203.14371,155.28968 -4.73096,5.05034 4.29974,-1.99939 z"
         id="path1041" />
      <path
         style="fill:#72f9ff;fill-opacity:1;fill-rule:nonzero;stroke:#68e8fb;stroke-width:0.120568px;stroke-linecap:butt;stroke-linejoin:miter;stroke-opacity:0.324484"
         d="m 203.14371,155.28968 -1.33452,-0.94653 -3.39645,5.99689 z"
         id="path1043" />
      <path
         style="fill:#368286;fill-opacity:1;fill-rule:nonzero;stroke:#68e8fb;stroke-width:0.120568px;stroke-linecap:butt;stroke-linejoin:miter;stroke-opacity:0.324484"
         d="m 183.37457,153.14448 10.48605,9.43692 4.55213,-2.24138 -10.63697,-6.258 z"
         id="path1045" />
      <path
         style="fill:#214e50;fill-opacity:1;fill-rule:nonzero;stroke:#68e8fb;stroke-width:0.120568px;stroke-linecap:butt;stroke-linejoin:miter;stroke-opacity:0.324484"
         d="m 193.86062,162.5814 5.73204,-1.74905 -1.17991,-0.49233 z"
         id="path1047" />
      <path
         style="fill:#357f83;fill-opacity:1;fill-rule:nonzero;stroke:#68e8fb;stroke-width:0.120568px;stroke-linecap:butt;stroke-linejoin:miter;stroke-opacity:0.324484"
         d="m 199.59266,160.83235 6.38116,-2.31265 -3.26133,-0.17907 -4.29974,1.99939 z"
         id="path1049" />
      <text
         xml:space="preserve"
         style="font-style:normal;font-variant:normal;font-weight:normal;font-stretch:normal;font-size:7.70645px;line-height:1.25;font-family:'Rockwell Extra Bold';-inkscape-font-specification:'Rockwell Extra Bold, Normal';font-variant-ligatures:normal;font-variant-caps:normal;font-variant-numeric:normal;font-variant-east-asian:normal;fill:#004141;fill-opacity:1;stroke:none;stroke-width:0.192662;stroke-opacity:0.324484"
         x="179.68443"
         y="154.47873"
         id="text1150"><tspan
           sodipodi:role="line"
           id="tspan1148"
           x="179.68443"
           y="154.47873"
           style="font-style:normal;font-variant:normal;font-weight:normal;font-stretch:normal;font-size:7.70645px;font-family:'Rockwell Extra Bold';-inkscape-font-specification:'Rockwell Extra Bold, Normal';font-variant-ligatures:normal;font-variant-caps:normal;font-variant-numeric:normal;font-variant-east-asian:normal;fill:#004141;fill-opacity:1;stroke:none;stroke-width:0.192662;stroke-opacity:0.324484">SHARD</tspan></text>
    </g>
  </g>
  <g
     inkscape:groupmode="layer"
     id="layer2"
     inkscape:label="Layer 2"
     transform="translate(-114.72672,-137.14798)" />
</svg>
